<?xml version="1.0" encoding="UTF-8" standalone="no"?>
<!-- Created with Inkscape (http://www.inkscape.org/) -->

<svg
   xmlns:dc="http://purl.org/dc/elements/1.1/"
   xmlns:cc="http://creativecommons.org/ns#"
   xmlns:rdf="http://www.w3.org/1999/02/22-rdf-syntax-ns#"
   xmlns:svg="http://www.w3.org/2000/svg"
   xmlns="http://www.w3.org/2000/svg"
   xmlns:sodipodi="http://sodipodi.sourceforge.net/DTD/sodipodi-0.dtd"
   xmlns:inkscape="http://www.inkscape.org/namespaces/inkscape"
   width="123"
   height="128"
   id="svg2"
   version="1.1"
   inkscape:version="0.48.4 r9939"
   sodipodi:docname="Tic-Tac-Toe.svg"
   inkscape:export-filename="/home/hairo/sandbox/Tic-Tac-Toe/images/Tic-Tac-Toe.png"
   inkscape:export-xdpi="90"
   inkscape:export-ydpi="90">
  <defs
     id="defs4" />
  <sodipodi:namedview
     id="base"
     pagecolor="#ffffff"
     bordercolor="#666666"
     borderopacity="1.0"
     inkscape:pageopacity="0"
     inkscape:pageshadow="2"
     inkscape:zoom="4.4375"
     inkscape:cx="61.5"
     inkscape:cy="64"
     inkscape:document-units="px"
     inkscape:current-layer="layer1"
     showgrid="false"
     inkscape:window-width="1024"
     inkscape:window-height="744"
     inkscape:window-x="0"
     inkscape:window-y="24"
     inkscape:window-maximized="1"
     inkscape:showpageshadow="false"
     showguides="true"
     inkscape:guide-bbox="true" />
  <metadata
     id="metadata7">
    <rdf:RDF>
      <cc:Work
         rdf:about="">
        <dc:format>image/svg+xml</dc:format>
        <dc:type
           rdf:resource="http://purl.org/dc/dcmitype/StillImage" />
        <dc:title />
      </cc:Work>
    </rdf:RDF>
  </metadata>
  <g
     inkscape:label="Capa 1"
     inkscape:groupmode="layer"
     id="layer1"
     transform="translate(0,-924.36218)">
    <path
       style="fill:#ececec;fill-opacity:1;fill-rule:nonzero;stroke:#ececec;stroke-width:1.13599801;stroke-miterlimit:4;stroke-opacity:1;stroke-dasharray:none"
       d="m 12.747941,1046.9834 c -3.280058,-0.6613 -6.2928337,-3.2501 -8.0594351,-6.9254 -1.8674092,-3.885 -1.7123753,0.7649 -1.7123753,-51.35903 0,-52.43135 -0.1604215,-47.92635 1.849625,-51.94163 1.1594271,-2.31607 3.1221095,-4.47088 4.9994874,-5.48889 2.57942,-1.39869 -0.7503979,-1.31418 51.78175,-1.31418 51.628837,0 49.139037,-0.0542 51.438347,1.11887 2.13279,1.08807 4.18823,3.3529 5.48119,6.03957 1.7166,3.56694 1.5977,-0.26858 1.5977,51.53795 0,45.69194 -0.007,46.47794 -0.45433,48.24624 -0.74124,2.9327 -1.86557,4.9563 -3.84283,6.9164 -1.84559,1.8296 -3.37528,2.717 -5.42903,3.1495 -1.42619,0.3004 -96.16338,0.3203 -97.650099,0.021 l 0,0 z"
       id="path3013"
       inkscape:connector-curvature="0"
       inkscape:export-filename="/home/hairo/sandbox/Tic-Tac-Toe/images/Tic-Tac-Toe.png"
       inkscape:export-xdpi="90"
       inkscape:export-ydpi="90" />
    <path
       style="fill:none;stroke:#b0d6e3;stroke-width:14.43850802999999949;stroke-linecap:butt;stroke-linejoin:miter;stroke-miterlimit:4;stroke-opacity:1;stroke-dasharray:none"
       d="m 24.020272,948.70816 78.990798,79.86114"
       id="path3793-9"
       inkscape:connector-curvature="0" />
    <path
       style="fill:#000000;fill-opacity:1;stroke:#b0d6e3;stroke-width:14.43850802999999949;stroke-linecap:butt;stroke-linejoin:miter;stroke-miterlimit:4;stroke-opacity:1;stroke-dasharray:none"
       d="M 24.730472,1028.1809 102.30053,949.75649"
       id="path3841"
       inkscape:connector-curvature="0" />
    <path
       transform="matrix(1.6799402,0,0,1.6902897,-29.089377,911.80398)"
       d="m 77.720259,45.05294 c 0,13.052825 -10.530534,23.63423 -23.520605,23.63423 -12.990072,0 -23.520605,-10.581405 -23.520605,-23.63423 0,-13.052824 10.530533,-23.634229 23.520605,-23.634229 12.990071,0 23.520605,10.581405 23.520605,23.634229 z"
       sodipodi:ry="23.63423"
       sodipodi:rx="23.520605"
       sodipodi:cy="45.05294"
       sodipodi:cx="54.199654"
       id="path3849"
       style="fill:none;stroke:#ffbcc6;stroke-width:8.56831264000000026;stroke-linejoin:miter;stroke-miterlimit:4;stroke-opacity:1;stroke-dasharray:none"
       sodipodi:type="arc" />
  </g>
</svg>
